<?xml version="1.0" standalone="no"?>
<!DOCTYPE svg PUBLIC "-//W3C//DTD SVG 20010904//EN"
 "http://www.w3.org/TR/2001/REC-SVG-20010904/DTD/svg10.dtd">
<svg version="1.0" xmlns="http://www.w3.org/2000/svg"
 width="800.000000pt" height="800.000000pt" viewBox="0 0 800.000000 800.000000"
 preserveAspectRatio="xMidYMid meet">
<metadata>
Created by potrace 1.14, written by Peter Selinger 2001-2017
</metadata>
<g transform="translate(0.000000,800.000000) scale(0.100000,-0.100000)"
fill="#000000" stroke="none">
<path d="M4750 6183 c-216 -26 -348 -74 -486 -176 -58 -43 -400 -382 -460
-457 -31 -38 -64 -70 -73 -71 -3 0 -49 -1 -101 -2 -86 -2 -102 -6 -170 -38
-203 -97 -537 -428 -596 -591 -11 -29 -16 -85 -18 -168 -2 -125 -13 -168 -50
-206 -7 -6 -23 -25 -37 -40 -34 -40 -123 -113 -194 -160 -157 -103 -360 -185
-715 -289 -363 -106 -660 -246 -813 -384 -75 -68 -113 -131 -151 -252 -58
-183 -55 -210 29 -287 124 -114 436 -225 915 -327 63 -13 129 -26 145 -29 17
-3 41 -8 55 -11 34 -7 213 -33 275 -40 28 -3 59 -8 70 -10 11 -2 63 -7 115
-11 52 -3 104 -8 114 -10 117 -22 781 -21 1001 1 169 17 224 23 270 30 17 2
53 7 80 10 41 5 348 66 405 79 58 14 223 63 315 92 164 53 304 113 562 240
128 63 235 114 237 114 3 0 29 11 58 24 151 70 348 134 464 152 21 3 67 12
100 19 34 8 73 16 87 19 111 20 389 114 529 179 221 102 459 274 560 405 l41
53 5 122 c12 314 5 554 -19 682 -5 28 -12 66 -15 85 -3 19 -21 85 -40 146 -91
302 -255 564 -429 688 -77 55 -146 83 -226 93 -129 16 -640 9 -744 -11 -11 -2
-40 -7 -65 -10 -25 -4 -76 -14 -115 -21 -112 -23 -125 -25 -149 -13 -13 5 -33
27 -45 49 -49 86 -178 202 -287 257 -46 23 -152 59 -204 68 -40 7 -193 12
-230 7z m1565 -507 c273 -44 398 -129 412 -280 8 -91 -36 -156 -148 -216 -57
-30 -207 -74 -292 -85 -23 -3 -58 -8 -77 -10 -19 -3 -116 -7 -215 -9 -233 -5
-273 5 -290 74 -5 21 -15 133 -20 220 -2 58 -7 116 -9 128 -3 13 -8 50 -12 82
l-6 59 38 9 c22 6 50 13 64 16 14 3 59 9 100 12 41 4 76 8 78 9 6 5 339 -3
377 -9z m-2398 -440 c72 -3 137 -8 145 -10 7 -3 36 -7 63 -10 28 -3 61 -8 75
-11 14 -3 39 -8 55 -11 101 -18 288 -74 390 -117 160 -68 353 -183 480 -287
72 -59 140 -99 182 -106 32 -6 55 8 130 77 70 66 102 82 141 73 42 -11 109
-63 123 -97 25 -60 9 -101 -72 -187 -94 -100 -263 -283 -314 -339 -66 -73
-399 -407 -450 -452 -241 -212 -580 -425 -855 -537 -239 -98 -513 -174 -710
-197 -30 -3 -66 -8 -80 -10 -147 -21 -507 -21 -630 0 -14 2 -45 7 -70 10 -167
22 -413 84 -620 157 -47 16 -89 31 -95 32 -13 4 -46 16 -70 27 -11 4 -54 22
-96 38 -67 26 -98 43 -170 93 -10 6 -27 29 -39 50 -31 55 -23 113 20 150 41
33 84 31 206 -13 313 -111 676 -215 819 -235 88 -11 95 -12 168 -19 103 -11
337 -13 437 -4 111 9 214 20 220 24 3 2 26 6 50 10 140 19 366 85 535 155 121
50 356 175 453 241 24 16 45 29 47 29 3 0 29 17 57 37 325 228 335 333 49 512
-139 87 -328 169 -476 207 -16 4 -32 8 -35 9 -38 10 -209 47 -255 54 -157 27
-172 29 -245 36 -36 4 -73 9 -82 10 -9 2 -57 6 -105 9 -144 10 -174 16 -200
44 -21 23 -28 46 -24 82 4 29 72 117 159 206 154 156 301 242 462 268 41 7 80
11 85 10 6 -2 69 -5 142 -8z"/>
<path d="M7230 3493 c-111 -92 -225 -160 -376 -223 -128 -53 -316 -108 -434
-125 -19 -3 -46 -7 -60 -10 -29 -5 -99 -13 -185 -21 -164 -14 -297 -62 -505
-181 -239 -136 -525 -259 -811 -348 -92 -29 -223 -65 -289 -80 -8 -2 -64 -15
-125 -29 -96 -22 -202 -42 -272 -51 -12 -2 -34 -6 -50 -9 -15 -3 -50 -8 -78
-11 -27 -3 -63 -7 -80 -10 -16 -2 -57 -7 -90 -10 -33 -3 -73 -8 -90 -10 -211
-27 -1207 -27 -1515 0 -25 2 -87 7 -139 10 -51 4 -101 8 -110 10 -9 1 -38 6
-66 9 -47 6 -92 12 -160 22 -76 11 -206 37 -300 58 -279 66 -542 171 -730 294
-118 77 -149 88 -173 59 -21 -25 -34 -113 -38 -253 -4 -127 -2 -147 17 -193
12 -28 32 -62 45 -75 55 -54 359 -183 629 -265 96 -29 318 -86 380 -97 17 -3
48 -9 70 -14 39 -9 61 -13 135 -25 19 -3 60 -10 90 -15 30 -5 73 -12 95 -15
22 -2 56 -7 75 -9 19 -3 55 -8 80 -10 25 -3 68 -8 95 -12 28 -3 68 -7 90 -9
22 -1 81 -6 130 -10 145 -12 170 -13 365 -21 323 -13 809 -8 1050 11 185 14
375 40 515 70 39 8 79 17 90 19 11 2 49 12 85 21 36 9 74 19 85 21 38 7 269
84 335 111 286 120 489 250 688 441 93 90 178 140 252 149 50 6 50 6 51 -23 1
-16 1 -33 0 -38 -1 -6 5 -29 14 -52 13 -34 22 -44 48 -50 29 -7 151 -7 222 1
91 9 172 18 190 22 11 2 43 8 70 13 28 5 59 11 70 14 11 2 43 9 70 16 205 46
575 200 664 277 53 45 66 96 66 263 -1 228 -18 357 -57 413 -29 40 -63 35
-128 -20z"/>
</g>
</svg>
